<?xml version="1.0" standalone="no"?>
<!DOCTYPE svg PUBLIC "-//W3C//DTD SVG 20010904//EN"
 "http://www.w3.org/TR/2001/REC-SVG-20010904/DTD/svg10.dtd">
<svg version="1.0" xmlns="http://www.w3.org/2000/svg"
 width="1280.000000pt" height="1280.000000pt" viewBox="0 0 1280.000000 1280.000000"
 preserveAspectRatio="xMidYMid meet">
<metadata>
Created by potrace 1.11, written by Peter Selinger 2001-2013
</metadata>
<g transform="translate(0.000000,1280.000000) scale(0.100000,-0.100000)"
fill="#000000" stroke="none">
<path d="M5845 9559 c-469 -45 -959 -238 -1339 -527 -247 -187 -491 -454 -651
-713 -204 -329 -356 -771 -381 -1110 -7 -96 2 -126 48 -150 16 -9 728 -11
2867 -11 1565 0 2854 1 2864 1 10 1 32 14 48 30 24 24 29 38 29 76 0 111 -66
455 -97 503 -19 30 -70 52 -106 45 -35 -7 -77 -57 -77 -91 0 -15 11 -77 25
-137 13 -61 28 -136 33 -167 l9 -58 -2717 0 -2717 0 12 78 c62 380 221 755
450 1061 396 529 968 863 1645 958 185 26 1038 26 1215 0 387 -58 714 -179
1020 -378 294 -191 517 -414 721 -720 46 -69 90 -132 99 -139 8 -7 34 -13 57
-13 34 0 47 6 70 32 49 55 41 88 -65 246 -450 677 -1169 1108 -1975 1185 -127
12 -958 11 -1087 -1z"/>
<path d="M5463 8915 c-40 -17 -69 -71 -59 -110 4 -15 17 -37 31 -50 52 -53
133 -37 161 31 36 86 -48 167 -133 129z"/>
<path d="M6386 8915 c-16 -8 -35 -23 -42 -33 -17 -21 -17 -92 -1 -113 64 -83
182 -47 182 57 0 76 -74 124 -139 89z"/>
<path d="M7314 8921 c-65 -28 -83 -110 -35 -163 24 -27 36 -33 71 -33 35 0 47
6 71 33 20 22 29 43 29 67 0 65 -78 120 -136 96z"/>
<path d="M4887 8286 c-70 -65 -29 -176 65 -176 56 0 98 43 98 100 0 87 -101
133 -163 76z"/>
<path d="M5849 8281 c-80 -81 10 -208 114 -160 28 13 57 58 57 89 0 31 -29 76
-57 89 -43 20 -82 13 -114 -18z"/>
<path d="M6834 8299 c-25 -13 -54 -60 -54 -89 0 -12 7 -35 17 -50 52 -88 183
-52 183 50 0 76 -76 122 -146 89z"/>
<path d="M7779 8281 c-63 -64 -20 -171 69 -171 45 0 87 32 98 74 24 99 -95
168 -167 97z"/>
<path d="M8983 8045 c-33 -14 -63 -59 -63 -94 0 -33 66 -167 91 -185 35 -24
82 -20 118 10 43 36 48 75 16 152 -35 86 -45 100 -81 117 -38 18 -40 18 -81 0z"/>
<path d="M3525 6909 c-71 -42 -73 -142 -4 -180 12 -6 63 -15 114 -19 111 -11
158 -29 307 -115 152 -88 239 -115 393 -122 188 -9 303 20 465 115 178 104
236 123 391 123 129 0 217 -25 336 -97 97 -59 203 -108 273 -125 34 -9 110
-14 195 -14 85 0 161 5 195 14 70 17 176 66 273 125 119 72 208 97 336 97 129
0 200 -17 301 -74 154 -85 261 -134 322 -148 39 -9 117 -14 208 -13 128 1 154
4 225 27 44 15 132 56 195 93 63 36 139 75 168 86 106 40 305 39 411 -1 29
-11 98 -47 154 -80 56 -33 125 -69 154 -80 81 -31 207 -54 280 -49 57 4 69 8
89 32 35 40 33 99 -4 136 -25 24 -38 28 -113 35 -118 10 -182 33 -322 113
-131 75 -205 105 -308 121 -133 22 -302 7 -419 -38 -31 -11 -107 -50 -170 -87
-157 -89 -217 -108 -355 -107 -143 0 -197 16 -360 108 -183 104 -289 135 -455
135 -162 -1 -279 -37 -454 -139 -150 -87 -205 -104 -351 -104 -146 0 -201 17
-351 104 -175 102 -292 138 -454 139 -163 0 -282 -34 -447 -131 -148 -87 -224
-111 -352 -113 -128 -1 -202 17 -308 75 -147 82 -245 128 -308 144 -81 21
-224 29 -250 14z"/>
<path d="M3841 6304 c-263 -56 -416 -302 -372 -594 15 -101 65 -200 134 -269
111 -110 196 -141 387 -141 113 0 130 2 154 21 51 40 50 118 -1 159 -22 17
-41 20 -128 20 -168 0 -254 39 -310 141 -28 51 -30 60 -30 169 0 91 4 122 18
147 28 52 77 102 121 126 l41 22 2120 5 c1739 4 2124 7 2143 18 66 38 58 143
-13 177 -30 13 -257 15 -2117 14 -1743 0 -2093 -3 -2147 -15z"/>
<path d="M8283 6301 c-61 -39 -71 -100 -24 -153 25 -28 36 -33 76 -33 40 0 51
5 76 33 78 88 -28 215 -128 153z"/>
<path d="M8563 6300 c-61 -37 -71 -99 -24 -152 l29 -33 189 -5 190 -5 48 -30
c59 -37 110 -101 126 -158 6 -23 9 -82 7 -132 -3 -76 -8 -98 -33 -144 -17 -30
-48 -67 -69 -83 -86 -62 79 -58 -2428 -58 l-2288 0 -32 -29 c-27 -24 -33 -36
-33 -71 0 -35 6 -47 33 -71 l32 -29 2314 0 c2280 0 2315 0 2377 20 82 25 128
54 196 121 199 197 187 576 -26 759 -103 90 -211 120 -431 120 -126 0 -149 -3
-177 -20z"/>
<path d="M3525 5188 c-61 -33 -73 -107 -27 -158 25 -29 34 -32 123 -40 113
-11 183 -35 298 -103 193 -114 300 -143 501 -135 158 7 238 32 405 128 162 94
187 102 330 107 146 6 215 -8 325 -69 190 -105 219 -119 285 -140 60 -20 92
-23 230 -23 182 0 243 14 370 83 39 21 104 57 145 80 99 54 171 72 295 72 133
0 197 -18 330 -92 220 -123 262 -137 435 -145 206 -9 293 16 555 162 115 63
182 78 330 73 140 -5 179 -19 345 -117 135 -79 233 -111 367 -118 l102 -6 30
31 c42 42 43 101 3 141 -23 24 -38 29 -107 35 -139 12 -191 31 -340 121 -177
106 -370 145 -565 115 -104 -17 -179 -46 -308 -120 -168 -96 -219 -113 -362
-114 -145 -1 -214 19 -360 105 -135 79 -199 105 -306 124 -109 19 -188 19
-297 0 -111 -19 -165 -41 -312 -125 -154 -88 -209 -104 -350 -104 -142 0 -198
17 -350 104 -149 85 -202 106 -318 126 -148 26 -319 8 -448 -46 -26 -11 -93
-47 -150 -80 -146 -85 -215 -105 -359 -104 -142 1 -187 15 -359 113 -69 39
-152 80 -185 91 -114 37 -260 51 -301 28z"/>
<path d="M3502 4635 c-42 -35 -45 -64 -22 -190 81 -451 366 -824 780 -1025
186 -90 370 -129 636 -137 156 -5 184 -3 213 11 44 23 66 75 51 122 -21 63
-40 68 -270 75 -259 8 -379 34 -555 121 -319 158 -538 426 -634 776 l-20 72
2719 0 2719 0 -20 -72 c-123 -451 -440 -754 -914 -875 -65 -17 -165 -18 -1348
-23 l-1279 -5 -29 -33 c-32 -36 -36 -69 -14 -112 33 -65 -51 -61 1328 -57
1379 4 1302 0 1517 67 494 153 867 578 960 1095 23 126 20 155 -22 190 l-30
25 -2868 0 -2868 0 -30 -25z"/>
<path d="M5284 3481 c-65 -28 -83 -110 -35 -163 27 -31 34 -33 91 -33 57 0 64
2 91 33 62 69 20 161 -77 168 -27 2 -59 0 -70 -5z"/>
</g>
</svg>
